  <svg width="40" height="34" viewBox="0 0 40 34" fill="none" xmlns="http://www.w3.org/2000/svg">
<path d="M2.7733 23.483V0.504237H5.22246V23.2669C5.22246 26.2924 4.80226 28.6455 3.96186 30.3263C3.12147 32.0071 1.83686 33.2316 0.108051 34L0 33.8199C0.960452 33.1476 1.65678 32.0071 2.08898 30.3983C2.5452 28.8136 2.7733 26.5085 2.7733 23.483Z" fill="white"/>
<path d="M29.7905 25.7161L26.4049 22.0424C25.4205 23.5071 24.352 24.5756 23.1994 25.2479C22.0709 25.8962 20.7262 26.2203 19.1655 26.2203C17.6048 26.2203 16.2361 25.9442 15.0596 25.3919C13.883 24.8157 12.9706 24.0233 12.3223 23.0148C11.674 21.9823 11.3498 20.7938 11.3498 19.4491C11.3498 17.7924 11.8421 16.3277 12.8265 15.0551C13.835 13.7585 15.2757 12.738 17.1486 11.9936L16.8604 11.6695C15.7559 10.4689 14.9635 9.38842 14.4833 8.42796C14.0031 7.4435 13.763 6.43503 13.763 5.40254C13.763 3.76977 14.2792 2.46116 15.3117 1.47669C16.3442 0.492232 17.7008 0 19.3816 0C21.0144 0 22.323 0.456214 23.3075 1.36864C24.3159 2.25706 24.8202 3.44562 24.8202 4.93432C24.8202 6.27895 24.376 7.52754 23.4875 8.68008C22.6231 9.83263 21.4466 10.7931 19.9579 11.5614L27.0172 19.233L29.5384 12.5339H31.9875L27.5935 19.8453L32.996 25.7161H29.7905ZM18.4812 9.97669L19.4536 11.0212C21.5186 9.65254 22.5511 7.70763 22.5511 5.18644C22.5511 3.8178 22.263 2.7613 21.6867 2.01695C21.1344 1.24859 20.3661 0.864406 19.3816 0.864406C18.3972 0.864406 17.5688 1.23658 16.8964 1.98093C16.2481 2.70127 15.924 3.66172 15.924 4.86229C15.924 5.67867 16.1281 6.49506 16.5363 7.31144C16.9445 8.10381 17.5928 8.99223 18.4812 9.97669ZM13.6909 19.161C13.6909 21.0099 14.2312 22.5106 15.3117 23.6631C16.4162 24.7917 17.8449 25.3559 19.5977 25.3559C21.9988 25.3559 24.0758 24.0353 25.8286 21.3941L17.6888 12.5339C15.0236 13.9506 13.6909 16.1596 13.6909 19.161Z" fill="white"/>
<path d="M37.5437 23.483V0.504237H39.9929V23.2669C39.9929 26.2924 39.5727 28.6455 38.7323 30.3263C37.8919 32.0071 36.6073 33.2316 34.8785 34L34.7704 33.8199C35.7309 33.1476 36.4272 32.0071 36.8594 30.3983C37.3156 28.8136 37.5437 26.5085 37.5437 23.483Z" fill="white"/>
</svg>
